<svg width="48" height="72" viewBox="0 0 48 72" fill="none" xmlns="http://www.w3.org/2000/svg">
<path d="M0 44.161V54.6928H2.99016C3.46259 54.6928 3.92926 54.6813 4.4017 54.6582C5.93999 54.5833 7.47252 54.3759 8.97624 54.036C9.71945 53.8689 10.4511 53.6673 11.1771 53.4311V72H22.7517V45.7339C24.0941 44.1898 24.9756 42.8416 25.448 42.0984C25.7764 41.5857 26.5888 40.2836 27.4299 38.4918C28.0349 37.207 28.5592 35.8819 29.0028 34.528C29.4637 33.1222 29.844 31.6934 30.1436 30.2473C30.4604 28.7378 30.6909 27.211 30.8407 25.6727C31.002 24.0711 31.0769 22.4579 31.0769 20.8447C31.0769 7.54741 24.8777 0 15.5385 0C6.57374 0 0.674081 6.79843 0.674081 18.3788C0.674081 27.0439 3.95807 35.4901 9.56389 42.2828C7.39761 43.4754 5.00664 44.1495 2.39097 44.1495H0V44.161ZM19.871 20.0266C19.871 25.3328 18.8224 30.1839 16.8809 34.1477C13.7409 29.5156 11.9491 24.0595 11.9491 18.3846C11.9491 13.303 13.3664 10.5376 15.7574 10.5376C18.1484 10.5376 19.8652 13.5277 19.8652 20.0266H19.871Z" fill="#F9F3F1"/>
<circle cx="40.5832" cy="65.3744" r="6.62559" fill="#FFC53E"/>
</svg>
